<svg xmlns="http://www.w3.org/2000/svg" viewBox="0 0 310 72" role="img" aria-labelledby="huaweiTitle">
<title id="huaweiTitle">Huawei</title>
<g fill="#d71920" transform="translate(6 5) scale(0.34)">
<path d="M44.7 40.9S22.2 62.4 21 85.1v4.3c1 18.4 14.9 29.2 14.9 29.2 22.3 21.8 76.3 49.2 89 55.4 0 0 .7.4 1.2-.1l.2-.5v-.5C91.7 97.6 44.7 40.9 44.7 40.9zM117.7 192.7c-.2-1-1.2-1-1.2-1l-89.9 3.2c9.7 17.4 26.2 30.8 43.4 26.8 11.7-3 38.5-21.7 47.3-28 .7-.6.4-1 .4-1zM118.7 183.2C79.2 156.5 2.7 115.7 2.7 115.7c-1.8 5.6-2.4 11-2.6 15.8v.9c0 13 4.9 22.2 4.9 22.2 9.7 20.6 28.5 26.8 28.5 26.8 8.5 3.7 17.1 3.8 17.1 3.8 1.5.2 53.6 0 67.5 0 .6 0 1-.6 1-.6v-.7c0-.4-.4-.7-.4-.7zM110.5 4.9A41.7 41.7 0 0079.2 43.3v5c.4 7.3 2 12.8 2 12.8 8 35.3 47 93.2 55.4 105.4.6.6 1.2.4 1.2.4.7-.2.7-1.2.7-1.2C151.4 36.4 125 2 125 2c-3.9.2-14.5 2.9-14.5 2.9zM211.7 32.5s-6-21.9-29.8-27.8c0 0-7-1.7-14.3-2.7 0 0-26.6 34.3-13.7 163.8.1.9.7 1 .7 1 .9.4 1.2-.4 1.2-.4 8.8-12.6 47.6-70.3 55.5-105.4 0 0 4.4-17.1.4-28.5zM176.1 191.8s-.9 0-1.1.6c0 0-.1.9.4 1.2 8.5 6.2 34.7 24.4 47.3 28 0 0 2 .6 5.2.7h1.7c8.4-.2 23.2-4.5 36.6-27.5l-90.1-3zM271.6 89.3c1.7-25.1-23.7-48.4-23.7-48.5 0 0-47 56.8-81.4 131.7 0 0-.4 1 .2 1.6l.5.1h.7c12.9-6.5 66.6-33.8 88.8-55.4 0 0 14-11.3 14.9-29.5zM290.1 115.5s-76.6 41.1-116.1 67.7c0 0-.6.5-.4 1.3 0 0 .4.7.9.7 14.1 0 67.8 0 69.1-.2 0 0 7-.2 15.5-3.5 0 0 19-6.1 28.9-27.7 0 0 8.9-17.7 2.1-38.3z"/>
</g>
<text x="118" y="50" font-family="Inter, Arial, Helvetica, sans-serif" font-weight="800" font-size="43" letter-spacing="2" fill="#20262c">HUAWEI</text>
</svg>