<svg width="420" height="96" viewBox="0 0 420 96" fill="none" xmlns="http://www.w3.org/2000/svg" role="img" aria-label="Ubiquiti">
  <rect width="420" height="96" rx="0" fill="none"/>
  <g fill="#111827">
    <path d="M33 28h11v24c0 10 6 16 16 16s16-6 16-16V28h11v25c0 16-11 26-27 26S33 69 33 53V28Z"/>
    <path d="M104 28h29c14 0 22 7 22 18 0 7-4 12-10 15 8 3 13 9 13 18 0 13-9 20-24 20h-30V28Zm28 29c7 0 11-3 11-9s-4-9-11-9h-17v18h17Zm2 31c8 0 12-4 12-10s-4-10-12-10h-19v20h19Z" transform="translate(0 -10) scale(.88 1)"/>
  </g>
  <text x="96" y="66" font-family="Inter, Arial, Helvetica, sans-serif" font-size="42" font-weight="800" letter-spacing="1.2" fill="#111827">Ubiquiti</text>
</svg>