<svg width="300" height="300" viewBox="0 0 300 300" fill="none" xmlns="http://www.w3.org/2000/svg">
<path fill-rule="evenodd" clip-rule="evenodd" d="M87.2435 124H90.4337V127.195H87.2435V124ZM79.2763 139.97V146.368C79.2763 146.368 79.2763 148.052 79.2536 148.603C79.2261 149.359 79.199 150.1 79.1216 150.838C78.9126 152.808 78.4763 154.679 77.5765 156.262C77.3176 156.722 77.0539 157.164 76.7404 157.582C74.8223 160.145 71.9046 162.07 68.2596 162.602C67.828 162.666 66.9507 162.721 66.5144 162.721C66.0781 162.721 65.201 162.666 64.7692 162.602C61.1289 162.07 58.2065 160.145 56.2887 157.582C55.9751 157.159 55.7114 156.718 55.4525 156.262C54.5524 154.679 54.1161 152.808 53.9071 150.838C53.83 150.1 53.8026 149.359 53.7754 148.603C53.7527 148.052 53.7527 146.368 53.7527 146.368V124.4H41V148.38C41 150.719 41.2001 153.491 41.6546 155.671C41.909 156.891 42.2999 158.097 42.7542 159.257C43.2179 160.445 43.7587 161.583 44.3405 162.602C45.1041 163.936 45.9856 165.215 47.0081 166.416C47.0577 166.474 47.1067 166.532 47.1557 166.589C47.399 166.876 47.6394 167.159 47.9082 167.436C48.1824 167.73 48.4708 168.011 48.7611 168.293L48.8716 168.4C52.9527 172.337 58.2701 174.795 63.833 175.359C64.501 175.427 65.8418 175.496 66.5144 175.5C67.1872 175.5 68.5277 175.427 69.1961 175.359C74.7542 174.795 80.0761 172.333 84.1574 168.4C84.4847 168.086 84.8072 167.768 85.1208 167.436C85.4018 167.142 85.658 166.841 85.9176 166.537H85.9179V166.537C85.9522 166.497 85.9865 166.456 86.0209 166.416C87.0434 165.215 87.925 163.936 88.6885 162.602C89.2748 161.583 89.8111 160.445 90.2746 159.257C90.7291 158.097 91.1155 156.886 91.3744 155.671C91.8334 153.491 92.029 150.719 92.029 148.38V146.355H85.6527V139.97H92.029V133.58H85.6527V137.171V139.97H79.2763ZM178.711 163.231C180.193 163.231 181.847 162.835 183.074 162.33L187.001 166.48H194.209L187.864 159.731C190.818 157.059 191.864 153.018 191.864 149.914C191.864 148.217 191.614 146.487 190.964 144.826C189.56 141.108 185.701 136.67 178.711 136.67C171.721 136.67 167.899 141.108 166.495 144.862C165.845 146.524 165.595 148.217 165.595 149.914C165.595 151.612 165.845 153.341 166.458 155.002C167.899 158.757 171.685 163.231 178.711 163.231ZM184.26 155.94C183.074 157.31 181.056 158.502 178.747 158.502C176.407 158.502 174.389 157.346 173.198 155.94C171.758 154.283 171.289 151.898 171.289 149.914C171.289 147.93 171.758 145.622 173.198 143.925C174.384 142.519 176.371 141.435 178.711 141.435C181.052 141.435 183.069 142.519 184.26 143.925C185.701 145.581 186.169 147.93 186.169 149.914C186.169 151.898 185.701 154.278 184.26 155.94ZM124.16 151.898C124.088 153.018 123.979 154.174 123.438 155.184H123.447C122.474 156.882 120.706 157.929 118.725 157.929C116.743 157.929 114.939 156.882 114.039 155.257C113.426 154.174 113.317 153.018 113.28 152.19V137.176H107.981V151.826C107.981 152.8 108.049 153.955 108.231 154.893C108.449 155.867 108.881 156.95 109.385 157.815C109.781 158.534 110.285 159.221 110.862 159.835C112.917 161.997 115.766 163.226 118.72 163.226C121.674 163.226 124.524 162.002 126.542 159.835C127.119 159.221 127.624 158.538 128.055 157.815C128.523 156.95 128.955 155.867 129.173 154.893C129.351 153.955 129.46 152.8 129.46 151.826V137.176H124.16V151.898ZM133.705 137.176V162.725H133.709H143.258C149.925 162.725 152.665 158.975 152.665 155.221C152.665 153.45 151.584 150.71 148.88 149.518C150.647 148.326 151.548 146.014 151.548 144.68C151.548 140.93 148.807 137.176 142.103 137.176H133.705ZM139.004 147.675V141.686H142.103C145.13 141.686 146.175 142.66 146.175 144.68C146.175 146.701 145.13 147.675 142.103 147.675H139.004ZM139.004 158.174V152.222H143.258C146.248 152.222 147.294 153.195 147.294 155.216C147.294 157.237 146.248 158.174 143.258 158.174H139.004ZM156.697 137.176H161.996V162.725H156.697V137.176ZM210.82 155.184C211.361 154.174 211.47 153.018 211.543 151.898V137.176H216.842V151.826C216.842 152.8 216.733 153.955 216.556 154.893C216.338 155.867 215.906 156.95 215.438 157.815C215.006 158.538 214.502 159.221 213.924 159.835C211.907 162.002 209.057 163.226 206.103 163.226C203.149 163.226 200.299 161.997 198.245 159.835C197.668 159.221 197.163 158.534 196.768 157.815C196.263 156.95 195.832 155.867 195.613 154.893C195.432 153.955 195.363 152.8 195.363 151.826V137.176H200.663V152.19C200.699 153.018 200.808 154.174 201.422 155.257C202.322 156.882 204.126 157.929 206.107 157.929C208.089 157.929 209.857 156.882 210.829 155.184H210.82ZM226.391 137.176H221.092V162.725H226.391V137.176ZM250.534 137.176V141.686H242.712V162.725H237.413V141.686H229.591V137.176H250.529H250.534ZM259 137.176H253.701V162.725H259V137.176ZM80.8668 128.792H85.6524V133.584H80.8668V128.792Z" fill="black"/>
</svg>
